<svg width="20" height="20" viewBox="0 0 20 20" fill="none" xmlns="http://www.w3.org/2000/svg">
<g id="20px/arrow-square-up">
<path id="icon" fill-rule="evenodd" clip-rule="evenodd" d="M7.50008 18.9583H12.5001C17.0251 18.9583 18.9584 17.025 18.9584 12.5V7.49996C18.9584 2.97496 17.0251 1.04163 12.5001 1.04163H7.50008C2.97508 1.04163 1.04175 2.97496 1.04175 7.49996V12.5C1.04175 17.025 2.97508 18.9583 7.50008 18.9583ZM2.29175 7.49996C2.29175 3.65829 3.65841 2.29163 7.50008 2.29163H12.5001C16.3417 2.29163 17.7084 3.65829 17.7084 7.49996V12.5C17.7084 16.3416 16.3417 17.7083 12.5001 17.7083H7.50008C3.65841 17.7083 2.29175 16.3416 2.29175 12.5V7.49996ZM12.5001 11.6583C12.6251 11.7833 12.7834 11.8417 12.9418 11.8417C13.1001 11.8417 13.2584 11.7833 13.3834 11.6583C13.6251 11.4167 13.6251 11.0167 13.3834 10.775L10.4418 7.83335C10.2001 7.59168 9.80009 7.59168 9.55842 7.83335L6.61675 10.775C6.37508 11.0167 6.37508 11.4167 6.61675 11.6583C6.85842 11.9 7.25842 11.9 7.50008 11.6583L10.0001 9.15835L12.5001 11.6583Z" fill="#999FA6"/>
</g>
</svg>
